<?xml version="1.0" encoding="UTF-8" standalone="no"?>
<!DOCTYPE svg PUBLIC "-//W3C//DTD SVG 1.1//EN" "http://www.w3.org/Graphics/SVG/1.1/DTD/svg11.dtd">
<svg width="100%" height="100%" viewBox="0 0 1300 355" version="1.1" xmlns="http://www.w3.org/2000/svg" xmlns:xlink="http://www.w3.org/1999/xlink" xml:space="preserve" xmlns:serif="http://www.serif.com/" style="fill-rule:evenodd;clip-rule:evenodd;stroke-linecap:round;stroke-linejoin:round;stroke-miterlimit:1.5;">
    <g transform="matrix(1.04606,0,0,1,-21.0794,-1.92475)">
        <rect x="-8.982" y="-14.348" width="1323.21" height="386.877" style="fill:rgb(8,38,44);stroke:black;stroke-width:0.98px;"/>
    </g>
    <g transform="matrix(0.506347,0,0,0.506347,11.6611,86.4836)">
        <g id="OR10-Suboficial_Mayor.svg" transform="matrix(3.99746,0,0,3.99746,207.757,179.09)">
            <g transform="matrix(1,0,0,1,-46.063,-37.9287)">
                <clipPath id="_clip1">
                    <rect x="0" y="0" width="92.126" height="75.857"/>
                </clipPath>
                <g clip-path="url(#_clip1)">
                    <g id="Capa-1" serif:id="Capa 1" transform="matrix(1,0,0,1,-143.937,-660.185)">
                        <g id="rect13971-6-25-1" transform="matrix(1,0,0,1,114.519,-6.70869)">
                            <path d="M29.918,695.394L75.481,667.394L121.044,695.394L121.044,707.244L75.481,679.244L29.918,707.244L29.918,695.394Z" style="fill:rgb(232,176,15);fill-rule:nonzero;stroke:rgb(179,0,3);stroke-width:1px;stroke-linecap:square;stroke-linejoin:miter;stroke-miterlimit:4;"/>
                        </g>
                        <g id="rect13971-6-25-1-2" transform="matrix(1,0,0,1,114.519,-6.70869)">
                            <path d="M29.918,707.071L75.481,679.071L121.044,707.071L121.044,718.921L75.481,690.921L29.918,718.921L29.918,707.071Z" style="fill:rgb(232,176,15);fill-rule:nonzero;stroke:rgb(179,0,3);stroke-width:1px;stroke-linecap:square;stroke-linejoin:miter;stroke-miterlimit:4;"/>
                        </g>
                        <g id="path14918" transform="matrix(1,0,0,1,-5.35898e-07,17)">
                            <path d="M190,682.362L194.433,696.26L209.021,696.182L197.173,704.693L201.756,718.542L190,709.905L178.244,718.542L182.827,704.693L170.979,696.182L185.567,696.26L190,682.362Z" style="fill:rgb(232,176,15);fill-rule:nonzero;stroke:rgb(179,0,3);stroke-width:1px;stroke-linecap:square;stroke-linejoin:miter;stroke-miterlimit:4;"/>
                        </g>
                    </g>
                </g>
            </g>
            <g>
            </g>
        </g>
    </g>
    <g transform="matrix(1,0,0,1,-186.148,0)">
        <text x="532.515px" y="144.144px" style="font-family:'Roboto-Bold', 'Roboto';font-weight:700;font-size:116.667px;fill:rgb(232,176,15);">DOG N<tspan x="880.806px " y="144.144px ">A</tspan>ME</text>
    </g>
    <g transform="matrix(1,0,0,1,-186.148,153.543)">
        <text x="424.73px" y="144.144px" style="font-family:'Roboto-Bold', 'Roboto';font-weight:700;font-size:116.667px;fill:rgb(232,176,15);">MICROCHIP-01234</text>
    </g>
    <g transform="matrix(1.53883,0,0,1.53883,944.077,-117.708)">
        <path d="M162.425,136.913L168.151,138.416L176.287,133.569L170.561,132.066L179.036,127.02L184.762,128.523L192.813,123.732L187.087,122.23L195.506,117.184L201.26,118.687L209.877,113.556L204.123,112.054L215.433,105.307L215.433,91.843L210.699,91.843L195.562,100.857L196.98,95.102L188.362,100.261L186.945,106.016L178.498,111.033L179.915,105.279L171.865,110.098L170.476,115.852L162,120.898L163.417,115.143L155.282,119.991L153.865,125.745L141.732,132.973L129.6,125.745L128.211,119.991L120.047,115.143L121.465,120.898L112.989,115.852L111.6,110.098L103.55,105.279L104.967,111.033L96.52,106.016L95.102,100.261L86.485,95.102L87.902,100.857L72.765,91.843L68.031,91.843L68.031,105.307L79.342,112.054L73.587,113.556L82.205,118.687L87.959,117.184L96.378,122.23L90.652,123.732L98.702,128.523L104.428,127.02L112.904,132.066L107.178,133.569L115.313,138.416L121.039,136.913L129.118,141.732L121.039,146.551L115.313,145.049L107.178,149.896L112.904,151.398L104.428,156.444L98.702,154.942L90.652,159.732L96.378,161.235L87.959,166.28L82.205,164.778L73.587,169.909L79.342,171.411L68.031,178.157L68.031,191.622L72.765,191.622L87.902,182.608L86.485,188.362L95.102,183.203L96.52,177.449L104.967,172.431L103.55,178.186L111.6,173.367L112.989,167.613L121.465,162.567L120.047,168.321L128.211,163.474L129.6,157.72L141.732,150.491L153.865,157.72L155.282,163.474L163.417,168.321L162,162.567L170.476,167.613L171.865,173.367L179.915,178.186L178.498,172.431L186.945,177.449L188.362,183.203L196.98,188.362L195.562,182.608L210.699,191.622L215.433,191.622L215.433,178.157L204.123,171.411L209.877,169.909L201.26,164.778L195.506,166.28L187.087,161.235L192.813,159.732L184.762,154.942L179.036,156.444L170.561,151.398L176.287,149.896L168.151,145.049L162.425,146.551L154.346,141.732L162.425,136.913Z" style="fill:rgb(232,176,15);stroke:black;stroke-opacity:0;stroke-width:0.9px;stroke-linecap:butt;stroke-linejoin:bevel;stroke-miterlimit:4;"/>
    </g>
</svg>
